<svg width="20px" height="21px" viewBox="0 0 20 21" version="1.1" xmlns="http://www.w3.org/2000/svg" xmlns:xlink="http://www.w3.org/1999/xlink">
    <!-- Generator: Sketch 51.2 (57519) - http://www.bohemiancoding.com/sketch -->
    <title></title>
    <desc>Created with Sketch.</desc>
    <defs>
        <path d="M12,2.25 C13.3802152,2.25 14.6757752,2.51041406 15.8867188,3.03125 C17.0976623,3.55208594 18.1555944,4.26496943 19.0605469,5.16992188 C19.9654993,6.07487432 20.681638,7.13280645 21.2089844,8.34375 C21.7363308,9.55469355 22,10.8567639 22,12.25 C22,13.6432361 21.7395859,14.9453064 21.21875,16.15625 C20.6979141,17.3671936 19.9850306,18.4251257 19.0800781,19.3300781 C18.1751257,20.2350306 17.1171936,20.9479141 15.90625,21.46875 C14.6953064,21.9895859 13.3932361,22.25 12,22.25 C10.6067639,22.25 9.30143838,21.9895859 8.08398438,21.46875 C6.86653037,20.9479141 5.80859824,20.2350306 4.91015625,19.3300781 C4.01171426,18.4251257 3.30208594,17.3671936 2.78125,16.15625 C2.26041406,14.9453064 2,13.6432361 2,12.25 C2,10.8567639 2.26041406,9.55143838 2.78125,8.33398438 C3.30208594,7.11653037 4.01496943,6.05859824 4.91992188,5.16015625 C5.82487432,4.26171426 6.88280645,3.55208594 8.09375,3.03125 C9.30469355,2.51041406 10.6067639,2.25 12,2.25 Z M12,21 C13.1979227,21 14.3307238,20.7688825 15.3984375,20.3066406 C16.4661512,19.8443987 17.3938763,19.2161498 18.1816406,18.421875 C18.969405,17.6276002 19.5943987,16.6998751 20.0566406,15.6386719 C20.5188825,14.5774687 20.75,13.4479227 20.75,12.25 C20.75,11.0520773 20.5188825,9.91927617 20.0566406,8.8515625 C19.5943987,7.78384883 18.9661498,6.85612373 18.171875,6.06835938 C17.3776002,5.28059502 16.4498751,4.65560127 15.3886719,4.19335938 C14.3274687,3.73111748 13.1979227,3.5 12,3.5 C10.8020773,3.5 9.66927617,3.73111748 8.6015625,4.19335938 C7.53384883,4.65560127 6.60612373,5.2838502 5.81835938,6.078125 C5.03059502,6.8723998 4.40560127,7.8001249 3.94335938,8.86132812 C3.48111748,9.92253135 3.25,11.0520773 3.25,12.25 C3.25,13.4479227 3.48111748,14.5774687 3.94335938,15.6386719 C4.40560127,16.6998751 5.0338502,17.6276002 5.828125,18.421875 C6.6223998,19.2161498 7.5501249,19.8443987 8.61132812,20.3066406 C9.67253135,20.7688825 10.8020773,21 12,21 Z M17.3125,14.9453125 C17.4687508,15.0364588 17.5598957,15.1634106 17.5859375,15.3261719 C17.6119793,15.4889331 17.5598965,15.6484367 17.4296875,15.8046875 C17.4036457,15.9088547 17.3385422,15.9869789 17.234375,16.0390625 C17.1302078,16.0911461 17.0325525,16.1171875 16.9414062,16.1171875 C16.9023436,16.1171875 16.8567711,16.1041668 16.8046875,16.078125 C16.7526039,16.0520832 16.6940107,16.0260418 16.6289062,16 L12.5664062,13.4414062 C12.47526,13.5065107 12.3776047,13.5520832 12.2734375,13.578125 C12.1692703,13.6041668 12.0585943,13.6171875 11.9414062,13.6171875 C11.5638002,13.6171875 11.2513033,13.4934908 11.0039062,13.2460938 C10.7565092,12.9986967 10.6328125,12.6861998 10.6328125,12.3085938 C10.6328125,12.0611967 10.6914057,11.8430999 10.8085938,11.6542969 C10.9257818,11.4654938 11.095051,11.3125006 11.3164062,11.1953125 L11.3164062,6.1953125 C11.3164062,5.99999902 11.3717442,5.84700576 11.4824219,5.73632812 C11.5930995,5.62565049 11.7460928,5.5703125 11.9414062,5.5703125 C12.1236988,5.5703125 12.2734369,5.62565049 12.390625,5.73632812 C12.5078131,5.84700576 12.5664062,5.99999902 12.5664062,6.1953125 L12.5664062,11.1953125 C12.7877615,11.2864588 12.9570307,11.4329417 13.0742188,11.6347656 C13.1914068,11.8365896 13.25,12.0611967 13.25,12.3085938 C13.25,12.3085938 13.25,12.3183593 13.25,12.3378906 C13.25,12.357422 13.25,12.3671875 13.25,12.3671875 L17.3125,14.9453125 Z" id="path-1"></path>
    </defs>
    <g id="symbols" stroke="none" stroke-width="1" fill="none" fill-rule="evenodd">
        <g id="icon/time" transform="translate(-2.000000, -2.000000)">
            <mask id="mask-2" fill="white">
                <use xlink:href="#path-1"></use>
            </mask>
            <use id="" fill="#000000" xlink:href="#path-1"></use>
        </g>
    </g>
</svg>
