<?xml version="1.0" encoding="UTF-8"?>
<svg xmlns="http://www.w3.org/2000/svg" xmlns:xlink="http://www.w3.org/1999/xlink" width="14px" height="17px" viewBox="0 0 14 17" version="1.1">
    
    <title>person</title>
    <desc>Created with Sketch.</desc>
    <defs>
        <path d="M9.16162562,10.818445 C8.44361581,10.0953899 8,9.09950095 8,8 C8,5.790861 9.790861,4 12,4 C14.209139,4 16,5.790861 16,8 C16,9.08850089 15.5652162,10.0754526 14.859842,10.7966616 C17.2989828,11.8802182 19,14.3239622 19,17.165 L18.9913019,17.257857 C18.2149103,21.3657067 6.14745974,21.3657067 5.08614373,17.2910282 L5.07,17.165 C5.07,14.3428433 6.74848292,11.9127172 9.16162562,10.818445 Z M13.9267543,11.5062185 C13.3552543,11.8209412 12.6985379,12 12,12 C11.3123539,12 10.6652352,11.8264815 10.1000405,11.5208411 C7.77561754,12.3175235 6.09909874,14.5096821 6.07037487,17.0974258 C6.98308082,20.0907486 17.338796,20.0860525 17.9997982,17.1154093 C17.9785319,14.5038252 16.2789813,12.2922256 13.9267543,11.5062185 Z M12,11 C13.6568542,11 15,9.65685425 15,8 C15,6.34314575 13.6568542,5 12,5 C10.3431458,5 9,6.34314575 9,8 C9,9.65685425 10.3431458,11 12,11 Z" id="path-1"/>
    </defs>
    <g id="symbols" stroke="none" stroke-width="1" fill="none" fill-rule="evenodd">
        <g id="icon/person" transform="translate(-5.000000, -4.000000)">
            <mask id="mask-2" fill="white">
                <use xlink:href="#path-1"/>
            </mask>
            <use id="person" fill="#282828" fill-rule="nonzero" xlink:href="#path-1"/>
        </g>
    </g>
</svg>
