<?xml version="1.0" encoding="UTF-8"?>
<svg width="1110px" height="492px" viewBox="0 0 1110 492" version="1.1" xmlns="http://www.w3.org/2000/svg" xmlns:xlink="http://www.w3.org/1999/xlink">
    <!-- Generator: Sketch 64 (93537) - https://sketch.com -->
    <title>_logo-whitevector</title>
    <desc>Created with Sketch.</desc>
    <defs>
        <polygon id="path-1" points="0 -5.68434189e-14 347.3905 -5.68434189e-14 347.3905 347.3905 0 347.3905"></polygon>
    </defs>
    <g id="_logo-white" stroke="none" stroke-width="1" fill="none" fill-rule="evenodd">
        <g id="Group" transform="translate(99.000000, 72.000000)">
            <g id="Group-3">
                <mask id="mask-2" fill="white">
                    <use xlink:href="#path-1"></use>
                </mask>
                <g id="Clip-2"></g>
                <path d="M23.13695,195.77735 C51.00645,113.54935 103.89845,65.68435 163.57595,24.61035 L162.19995,21.96535 C83.53395,27.84135 21.53595,93.52685 21.53595,173.69485 C21.53595,181.19585 22.08845,188.56635 23.13695,195.77735 M324.59195,154.06235 C295.12795,233.56385 241.89745,282.60035 182.53745,322.09735 L184.13395,325.49235 C263.29995,320.12785 325.85495,254.22185 325.85495,173.69485 C325.85495,167.04185 325.41995,160.48985 324.59195,154.06235 M168.89295,307.23885 C223.20745,274.09585 267.57745,226.94535 297.43945,167.67135 C273.10945,136.85535 224.65545,130.21035 165.72645,130.27335 C161.90495,138.44635 153.54995,144.05035 143.94545,143.89885 C130.89995,143.69435 120.49045,132.95335 120.69645,119.90835 C120.90095,106.86235 131.64095,96.45435 144.68695,96.65935 C153.40545,96.79585 160.94495,101.63785 164.92695,108.73035 C214.26095,106.51785 261.90845,113.47785 306.19045,141.40335 C306.49095,120.77035 304.54645,102.95735 299.85295,88.60685 C282.40845,62.79885 257.25145,42.63085 227.69045,31.40635 C213.83045,46.19535 195.87645,48.22585 177.45245,39.25285 C123.66495,73.24635 80.34195,118.12785 51.41445,177.86435 C76.22545,208.29485 124.47645,217.13485 183.39745,216.14635 C187.08995,207.91435 195.35545,202.18035 204.96195,202.18035 C218.00895,202.18035 228.58495,212.75685 228.58495,225.80385 C228.58495,238.85035 218.00895,249.42685 204.96195,249.42685 C196.24295,249.42685 188.62745,244.70335 184.53545,237.67485 C135.24195,240.66135 87.79195,231.49235 43.07745,204.26685 C43.10995,232.15235 47.15695,254.82785 56.44745,270.67885 C72.65395,290.24985 93.66795,305.69435 117.67645,315.20785 C131.89245,299.80085 150.23745,297.78785 168.89295,307.23885 M173.69545,-0.00015 C269.62495,-0.00015 347.39095,77.76585 347.39095,173.69485 C347.39095,269.62435 269.62495,347.39085 173.69545,347.39085 C77.76595,347.39085 -5e-05,269.62435 -5e-05,173.69485 C-5e-05,77.76585 77.76595,-0.00015 173.69545,-0.00015" id="Fill-1" fill="#00C2BF" mask="url(#mask-2)"></path>
            </g>
            <text id="Modi" font-family="Avenir-Black, Avenir" font-size="190" font-weight="700" fill="#464444">
                <tspan x="447" y="234">SFI</tspan>
            </text>
        </g>
    </g>
</svg>